<svg xmlns="http://www.w3.org/2000/svg" viewBox="0 0 2100 1500" width="2100" height="1500">
  <defs>
    <linearGradient id="bg" x1="0%" y1="0%" x2="100%" y2="100%">
      <stop offset="0%" stop-color="#0f2b5e"/>
      <stop offset="100%" stop-color="#071a3d"/>
    </linearGradient>
  </defs>
  <rect width="2100" height="1500" rx="300" fill="url(#bg)"/>
  <g transform="matrix(2.4,0,0,2.4,170,-110)">
    <path d="M341.432,129.208C331.187,131.866 310.903,136.036 285.157,155.034C245.657,184.181 198.864,253.584 245.988,344.236C270.968,392.289 339.126,473.325 348.033,483.916C350.897,487.321 372.147,512.092 372.523,512.473C374.749,514.728 375.307,512.39 399.919,483.867C414.152,467.372 413.56,466.467 415.419,466.179C418.985,465.626 414.66,481.675 431.382,487.821C444.6,492.68 459.602,482.734 450.954,493.85C445.085,501.394 396.09,564.371 375.44,586.441C372.213,589.891 371.817,585.668 325.553,530.454C316.493,519.642 255.484,444.17 217.97,380.225C207.574,362.505 155.914,286.303 204.021,188.274C266.589,60.776 451.985,42.217 533.949,169.213C560.499,210.349 580.352,278.947 543.486,354.493C538.918,363.855 531.877,378.245 494.345,433.367C491.295,437.846 492.293,431.317 492.162,400.505C492.081,381.564 492.274,381.479 488.592,369.481C487.634,366.359 550.724,288.309 504.008,202.747C479.943,158.674 421.37,112.305 341.432,129.208Z" fill="#FFFFFF"/>
    <path d="M358.461,217.918C305.378,213.371 266.223,215.101 248.523,215.234C243.833,215.269 252.883,202.215 253.6,201.638C255.809,199.861 309.841,200.703 343.521,204.267C380.457,208.176 386.175,206.726 411.996,249.193C426.181,272.523 426.058,275.27 428.31,273.254C430.511,271.282 428.978,270.876 427.815,266.419C422.389,245.63 448.595,253.66 450.569,254.264C479.424,263.105 461.329,282.639 436.461,279.812C417.085,277.61 439.138,283.383 439.508,283.475C451.728,286.53 454.643,293.755 463.904,302.046C483.019,319.159 477.868,328.771 477.876,365.488C477.877,370.8 484.084,369.554 484.07,390.499C484.017,471.309 485.992,476.85 473.398,480.105C467.407,481.654 440.37,480.601 437.501,480.489C421.772,479.877 424.952,457.959 423.438,456.573C422.059,455.31 421.855,456.158 414.449,457.012C410.368,457.483 342.401,457.541 337.543,457.178C334.526,456.953 317.389,433.671 317.385,433.497C317.325,430.858 354.43,431.261 372.325,423.124C387.996,415.997 405.164,373.766 384.388,362.717C372.831,356.57 291.748,355.916 263.517,355.071C260.832,354.991 260.323,353.56 254.765,343.347C234.914,306.874 233.679,277.57 234.462,275.48C234.931,274.225 245.968,273.935 300.5,274.003C416.429,274.147 419.255,277.78 418.921,274.443C418.874,273.975 403.444,248.854 397.055,239.829C381.039,217.208 377.666,220.42 358.461,217.918Z" fill="#6b9fff"/>
  </g>
</svg>
