<svg xmlns="http://www.w3.org/2000/svg" viewBox="0 0 600 400" width="100%" height="100%">
  <!-- White Background -->
  <rect width="600" height="400" fill="#ffffff" />
  
  <!-- Hand-drawn Pencil Sketch Background Elements -->
  <g stroke="#71717a" stroke-width="1.5" stroke-linecap="round" stroke-linejoin="round" fill="none" opacity="0.4">
    <!-- Sketchy office buildings / trees -->
    <path d="M 50 300 Q 55 240 60 180" stroke-dasharray="3,3" />
    <path d="M 530 300 Q 525 250 520 200" stroke-dasharray="3,3" />
    <path d="M 10 300 L 590 300" stroke-dasharray="5,5" />
  </g>
  
  <!-- Realistic Vehicle Subject (Toyota Coaster Bus - Side View) -->
  <g id="vehicle">
    <!-- Shadow under bus -->
    <ellipse cx="300" cy="305" rx="230" ry="15" fill="rgba(0,0,0,0.15)" filter="blur(8px)" />
    
    <!-- Metallic Silver/Champagne Gradients for Coaster Bus -->
    <defs>
      <linearGradient id="bodyGrad" x1="0%" y1="0%" x2="100%" y2="100%">
        <stop offset="0%" stop-color="#f5f5f4" />
        <stop offset="60%" stop-color="#e7e5e4" />
        <stop offset="100%" stop-color="#a8a29e" />
      </linearGradient>
      <linearGradient id="glassGrad" x1="0%" y1="0%" x2="0%" y2="100%">
        <stop offset="0%" stop-color="#1c1917" />
        <stop offset="100%" stop-color="#44403c" />
      </linearGradient>
    </defs>

    <!-- Wheels -->
    <g transform="translate(170, 275)">
      <circle cx="0" cy="0" r="35" fill="#1c1917" />
      <circle cx="0" cy="0" r="22" fill="#78716c" stroke="#d6d3d1" stroke-width="1.5" />
      <circle cx="0" cy="0" r="6" fill="#e7e5e4" />
    </g>
    <g transform="translate(430, 275)">
      <circle cx="0" cy="0" r="35" fill="#1c1917" />
      <circle cx="0" cy="0" r="22" fill="#78716c" stroke="#d6d3d1" stroke-width="1.5" />
      <circle cx="0" cy="0" r="6" fill="#e7e5e4" />
    </g>

    <!-- Bus Silhouette Side Profile -->
    <path d="M 60 275
             L 60 145
             C 60 135, 80 120, 100 120
             L 500 120
             C 520 120, 540 135, 540 170
             L 540 275
             Z" fill="url(#bodyGrad)" stroke="#a8a29e" stroke-width="1" />
             
    <!-- Long Panoramic Side Windows of Coaster Bus -->
    <path d="M 70 130 L 140 130 L 140 185 L 70 185 Z" fill="url(#glassGrad)" />
    <path d="M 150 130 L 230 130 L 230 185 L 150 185 Z" fill="url(#glassGrad)" />
    <path d="M 240 130 L 320 130 L 320 185 L 240 185 Z" fill="url(#glassGrad)" />
    <path d="M 330 130 L 410 130 L 410 185 L 330 185 Z" fill="url(#glassGrad)" />
    <path d="M 420 130 L 500 130 L 490 185 L 420 185 Z" fill="url(#glassGrad)" />
    <path d="M 505 130 L 530 130 L 525 185 L 505 185 Z" fill="url(#glassGrad)" />
             
    <!-- Door Panels, handles -->
    <line x1="145" y1="120" x2="145" y2="275" stroke="#a8a29e" stroke-width="1.5" />
    <line x1="235" y1="120" x2="235" y2="275" stroke="#a8a29e" stroke-width="1.5" />
    <!-- Door handle -->
    <rect x="110" y="205" width="15" height="5" fill="#a8a29e" rx="1" stroke="#78716c" stroke-width="0.5" />
  </g>
</svg>
