<svg xmlns="http://www.w3.org/2000/svg" viewBox="0 0 600 400" width="100%" height="100%">
  <!-- White Background -->
  <rect width="600" height="400" fill="#ffffff" />
  
  <!-- Hand-drawn Pencil Sketch Background Elements -->
  <g stroke="#71717a" stroke-width="1.5" stroke-linecap="round" stroke-linejoin="round" fill="none" opacity="0.4">
    <!-- Sketchy horizon and office lobby entry -->
    <path d="M 50 300 Q 55 240 60 180" />
    <path d="M 530 300 Q 525 250 520 200" />
    <path d="M 10 300 L 590 300" stroke-dasharray="5,5" />
  </g>
  
  <!-- Realistic Vehicle Subject (Lexus GX SUV - Side View) -->
  <g id="vehicle">
    <!-- Shadow under SUV -->
    <ellipse cx="300" cy="305" rx="210" ry="15" fill="rgba(0,0,0,0.15)" filter="blur(8px)" />
    
    <!-- Glossy Obsidian Black Gradients for Lexus GX -->
    <defs>
      <linearGradient id="bodyGrad" x1="0%" y1="0%" x2="100%" y2="100%">
        <stop offset="0%" stop-color="#27272a" />
        <stop offset="50%" stop-color="#18181b" />
        <stop offset="100%" stop-color="#09090b" />
      </linearGradient>
      <linearGradient id="glassGrad" x1="0%" y1="0%" x2="0%" y2="100%">
        <stop offset="0%" stop-color="#020617" />
        <stop offset="100%" stop-color="#1e293b" />
      </linearGradient>
    </defs>

    <!-- Wheels -->
    <g transform="translate(180, 275)">
      <circle cx="0" cy="0" r="32" fill="#09090b" />
      <circle cx="0" cy="0" r="20" fill="#71717a" stroke="#cbd5e1" stroke-width="1.5" />
      <circle cx="0" cy="0" r="6" fill="#f1f5f9" />
    </g>
    <g transform="translate(420, 275)">
      <circle cx="0" cy="0" r="32" fill="#09090b" />
      <circle cx="0" cy="0" r="20" fill="#71717a" stroke="#cbd5e1" stroke-width="1.5" />
      <circle cx="0" cy="0" r="6" fill="#f1f5f9" />
    </g>

    <!-- SUV Silhouette Side Profile (Boxy offroad luxury look) -->
    <path d="M 80 275
             L 80 215
             C 80 205, 105 195, 125 185
             L 165 160
             C 185 145, 225 140, 305 140
             C 380 140, 440 145, 470 175
             L 510 215
             C 525 225, 530 240, 530 275
             Z" fill="url(#bodyGrad)" stroke="#3f3f46" stroke-width="0.5" />
             
    <!-- Side Windows -->
    <path d="M 175 150 L 225 150 L 225 185 L 175 185 Z" fill="url(#glassGrad)" />
    <path d="M 235 150 L 325 150 L 325 185 L 235 185 Z" fill="url(#glassGrad)" />
    <path d="M 335 150 L 425 150 L 415 185 L 335 185 Z" fill="url(#glassGrad)" />
    <path d="M 435 150 L 480 150 L 470 185 L 430 185 Z" fill="url(#glassGrad)" />
             
    <!-- Door Panel Seams, Handles -->
    <line x1="230" y1="140" x2="230" y2="275" stroke="#3f3f46" stroke-width="1" />
    <line x1="330" y1="140" x2="330" y2="275" stroke="#3f3f46" stroke-width="1" />
    <!-- Door handles (Chrome accent) -->
    <rect x="240" y="202" width="15" height="4" fill="#e2e8f0" rx="1" stroke="#3f3f46" stroke-width="0.5" />
    <rect x="190" y="202" width="15" height="4" fill="#e2e8f0" rx="1" stroke="#3f3f46" stroke-width="0.5" />
  </g>
</svg>
