<svg xmlns="http://www.w3.org/2000/svg" viewBox="0 0 600 400" width="100%" height="100%">
  <!-- White Background -->
  <rect width="600" height="400" fill="#ffffff" />
  
  <!-- Hand-drawn Pencil Sketch Background Elements -->
  <g stroke="#71717a" stroke-width="1.5" stroke-linecap="round" stroke-linejoin="round" fill="none" opacity="0.4">
    <path d="M 400 300 L 400 120 L 520 120 L 520 300" stroke-dasharray="3,3" />
    <path d="M 10 300 L 590 300" />
  </g>
  
  <!-- Realistic Vehicle Subject & Boarding People (Toyota Prado 2025) -->
  <g id="vehicle">
    <!-- Shadow under SUV -->
    <ellipse cx="300" cy="305" rx="210" ry="15" fill="rgba(0,0,0,0.15)" filter="blur(8px)" />
    
    <!-- White / Silver Metallic Body Gradients -->
    <defs>
      <linearGradient id="bodyGrad" x1="0%" y1="0%" x2="100%" y2="100%">
        <stop offset="0%" stop-color="#ffffff" />
        <stop offset="50%" stop-color="#f4f4f5" />
        <stop offset="100%" stop-color="#cbd5e1" />
      </linearGradient>
      <linearGradient id="glassGrad" x1="0%" y1="0%" x2="0%" y2="100%">
        <stop offset="0%" stop-color="#020617" />
        <stop offset="100%" stop-color="#1e293b" />
      </linearGradient>
    </defs>

    <!-- Wheels -->
    <g transform="translate(180, 275)">
      <circle cx="0" cy="0" r="34" fill="#09090b" />
      <circle cx="0" cy="0" r="22" fill="#71717a" stroke="#cbd5e1" stroke-width="1.5" />
    </g>
    <g transform="translate(420, 275)">
      <circle cx="0" cy="0" r="34" fill="#09090b" />
      <circle cx="0" cy="0" r="22" fill="#71717a" stroke="#cbd5e1" stroke-width="1.5" />
    </g>

    <!-- SUV Silhouette Side Profile -->
    <path d="M 80 275
             L 80 215
             C 80 205, 105 195, 125 185
             L 165 160
             C 185 145, 225 140, 305 140
             C 380 140, 440 145, 470 175
             L 510 215
             C 525 225, 530 240, 530 275
             Z" fill="url(#bodyGrad)" stroke="#cbd5e1" stroke-width="0.5" />
             
    <!-- Side Windows -->
    <path d="M 175 150 L 225 150 L 225 185 L 175 185 Z" fill="url(#glassGrad)" />
    <path d="M 335 150 L 425 150 L 415 185 L 335 185 Z" fill="url(#glassGrad)" />

    <!-- Open Executive Rear Door Space -->
    <rect x="230" y="145" width="100" height="126" fill="#020617" rx="5" />
    <rect x="240" y="195" width="40" height="30" fill="#1e293b" rx="2" /> <!-- Seats -->

    <!-- Chauffeur Standing and Holding the Door Open (Black person, Navy Suit) -->
    <g id="chauffeur" transform="translate(195, 160)">
      <!-- Head (Black Skin Color: #451a03) -->
      <circle cx="0" cy="15" r="9" fill="#451a03" />
      <!-- Cap -->
      <path d="M -9 12 L 9 12 L 12 7 L -4 7 Z" fill="#050548" />
      <!-- Chauffeur Suit (navy blue: #050548) -->
      <path d="M -10 26 C -10 26, -5 24, 0 26 C 5 24, 10 26, 10 42 L 6 95 L -6 95 Z" fill="#050548" />
      <!-- White shirt / black tie -->
      <path d="M -2 26 L 0 32 L 2 26 Z" fill="#ffffff" />
      <path d="M -1 30 L 0 45 L 1 30 Z" fill="#000000" />
      <!-- Legs -->
      <path d="M -4 95 L -6 125 M 4 95 L 6 125" stroke="#050548" stroke-width="6" />
      <!-- Hand welcoming passenger (Black Skin Color) -->
      <path d="M 9 32 Q 22 35 15 48" stroke="#451a03" stroke-width="4.5" fill="none" stroke-linecap="round" />
    </g>

    <!-- Passenger Boarding the Prado (Black person, Light Grey Suit) -->
    <g id="passenger" transform="translate(255, 172)">
      <!-- Head (Black Skin Color) -->
      <circle cx="0" cy="15" r="9" fill="#5f3e2d" />
      <!-- Torso / Dress (Light Grey suit) -->
      <path d="M -9 26 C -9 26, -4 24, 0 26 C 4 24, 9 26, 9 40 L 7 85 L -7 85 Z" fill="#e4e4e7" stroke="#a1a1aa" stroke-width="0.5" />
      <path d="M -4 85 L -10 110 M 4 85 L 6 112" stroke="#e4e4e7" stroke-width="6" />
    </g>

    <!-- Open Passenger Door (Hinged at the front, opening outwards/forward) -->
    <!-- Hinged at x=230 (front of the rear door slot) -->
    <!-- Door Panel flapped out to the left in perspective -->
    <path d="M 230 145 L 205 135 L 205 255 L 230 265 Z" fill="url(#bodyGrad)" stroke="#cbd5e1" stroke-width="1" />
    <path d="M 230 145 L 205 135 L 210 185 L 230 185 Z" fill="url(#glassGrad)" />
  </g>
</svg>
